<svg xmlns="http://www.w3.org/2000/svg" viewBox="0 0 512 512">
  <defs>
    <radialGradient id="bg" cx="50%" cy="42%" r="75%">
      <stop offset="0%" stop-color="#241640"/>
      <stop offset="100%" stop-color="#0a0a1f"/>
    </radialGradient>
    <radialGradient id="halo" cx="50%" cy="50%" r="50%">
      <stop offset="0%" stop-color="#cdb6ff" stop-opacity="0.9"/>
      <stop offset="55%" stop-color="#8a7bff" stop-opacity="0.35"/>
      <stop offset="100%" stop-color="#8a7bff" stop-opacity="0"/>
    </radialGradient>
    <radialGradient id="body" cx="42%" cy="40%" r="65%">
      <stop offset="0%" stop-color="#ffffff"/>
      <stop offset="45%" stop-color="#ffd9f4"/>
      <stop offset="100%" stop-color="#c77bff"/>
    </radialGradient>
    <linearGradient id="wing" x1="0" y1="0" x2="1" y2="0">
      <stop offset="0%" stop-color="#bdf0ff" stop-opacity="0.8"/>
      <stop offset="100%" stop-color="#bda7ff" stop-opacity="0"/>
    </linearGradient>
  </defs>
  <rect width="512" height="512" rx="112" fill="url(#bg)"/>
  <g opacity="0.95">
    <circle cx="256" cy="256" r="180" fill="url(#halo)"/>
    <g transform="translate(256 256)">
      <ellipse cx="-78" cy="-18" rx="84" ry="56" fill="url(#wing)" transform="rotate(-28 -78 -18)"/>
      <ellipse cx="78" cy="-18" rx="84" ry="56" fill="url(#wing)" transform="rotate(28 78 -18) scale(-1 1)"/>
      <circle r="68" fill="url(#body)"/>
      <circle cx="-22" cy="-6" r="9" fill="#241433"/>
      <circle cx="22" cy="-6" r="9" fill="#241433"/>
      <circle cx="-25" cy="-9" r="3" fill="#fff"/>
      <circle cx="19" cy="-9" r="3" fill="#fff"/>
      <path d="M-16 18 Q0 34 16 18" stroke="#3a1f4d" stroke-width="6" fill="none" stroke-linecap="round"/>
      <circle cx="-34" cy="14" r="9" fill="#ff7fb0" opacity="0.7"/>
      <circle cx="34" cy="14" r="9" fill="#ff7fb0" opacity="0.7"/>
    </g>
  </g>
  <g fill="#fff">
    <circle cx="120" cy="120" r="3.5" opacity="0.9"/>
    <circle cx="404" cy="150" r="3" opacity="0.8"/>
    <circle cx="150" cy="392" r="2.6" opacity="0.7"/>
    <circle cx="392" cy="372" r="3.2" opacity="0.85"/>
  </g>
</svg>
